<?xml version="1.0" standalone="no"?>
<!DOCTYPE svg PUBLIC "-//W3C//DTD SVG 20010904//EN"
 "http://www.w3.org/TR/2001/REC-SVG-20010904/DTD/svg10.dtd">
<svg version="1.0" xmlns="http://www.w3.org/2000/svg"
 width="700.000000pt" height="700.000000pt" viewBox="0 0 700.000000 700.000000"
 preserveAspectRatio="xMidYMid meet">
<metadata>
Created by potrace 1.11, written by Peter Selinger 2001-2013
</metadata>
<g transform="translate(0.000000,700.000000) scale(0.100000,-0.100000)"
fill="#000000" stroke="none">
<path d="M3873 6026 c-174 -64 -280 -220 -281 -410 -1 -334 363 -540 653 -370
86 50 179 173 201 266 10 39 11 161 2 203 -26 124 -141 261 -257 307 -84 33
-234 35 -318 4z"/>
<path d="M4059 4666 c-2 -2 -39 -7 -81 -10 -43 -3 -83 -8 -90 -11 -7 -2 -31
-6 -53 -9 -22 -3 -92 -14 -155 -26 -63 -11 -124 -22 -135 -24 -11 -2 -122 -24
-247 -47 l-228 -44 -15 -52 c-8 -28 -15 -55 -15 -60 0 -4 33 -8 74 -9 115 -1
200 -47 243 -128 23 -44 13 -96 -88 -501 -50 -198 -98 -387 -106 -420 -8 -33
-16 -67 -18 -75 -2 -8 -15 -58 -29 -110 -13 -52 -58 -228 -99 -390 -217 -852
-273 -1014 -384 -1125 -71 -71 -195 -95 -235 -45 -24 30 -23 32 17 82 50 62
86 139 87 190 3 152 -144 251 -337 226 -226 -29 -373 -264 -282 -450 53 -108
165 -183 315 -210 77 -14 294 -16 362 -4 105 20 149 31 240 63 276 94 520 294
676 553 21 36 39 67 40 70 0 3 9 23 19 45 26 58 59 149 120 325 122 353 195
561 214 605 5 11 23 58 41 105 59 157 116 273 195 396 145 225 264 344 345
344 44 0 70 -25 128 -125 46 -81 72 -108 124 -130 89 -37 186 -9 262 76 191
212 244 664 97 830 -116 132 -324 126 -506 -15 -153 -118 -347 -400 -542 -786
-46 -91 -82 -156 -79 -145 5 18 105 393 231 867 25 92 45 169 45 173 0 6 -144
7 -151 1z"/>
</g>
</svg>
